<svg width="1485" height="2111" viewBox="0 0 1485 2111" fill="none" xmlns="http://www.w3.org/2000/svg">
<path d="M759.708 2110.13C1048.02 2110.13 1281.75 2084.56 1281.75 2053.01C1281.75 2021.47 1048.02 1995.89 759.708 1995.89C471.392 1995.89 237.666 2021.47 237.666 2053.01C237.666 2084.56 471.392 2110.13 759.708 2110.13Z" fill="#ABA38C"/>
<path d="M1372.54 334.54C1279.97 907.916 1187.13 1477.98 1094.05 2044.72C858.181 2065.51 620.941 2065.51 385.072 2044.72C291.987 1477.89 199.157 907.831 106.582 334.54C525.953 400.964 953.169 400.964 1372.54 334.54V334.54Z" fill="white"/>
<path d="M293.389 1519.58C248.249 1242.58 203.195 964.905 158.225 686.547C543.259 747.461 935.479 747.461 1320.51 686.547C1275.54 965.16 1230.49 1242.97 1185.35 1519.96C889.092 1555.64 589.616 1555.51 293.389 1519.58Z" fill="#FDD736"/>
<path d="M739.148 1426.34C895.841 1426.34 1022.87 1299.34 1022.87 1142.67C1022.87 986.004 895.841 859 739.148 859C582.455 859 455.43 986.004 455.43 1142.67C455.43 1299.34 582.455 1426.34 739.148 1426.34Z" fill="white"/>
<path d="M283 1458.5C595.652 1488.84 882.848 1488.84 1195.5 1458.5M169.5 758C576.175 809.507 902.325 808.507 1309 757" stroke="white" stroke-width="0.57" stroke-linecap="round" stroke-linejoin="round"/>
<path d="M1 287.75C1 242.363 332.536 205.645 742.493 205.645C1152.45 205.645 1483.86 242.363 1483.86 287.75V370.748C1483.86 416.008 1152.32 452.853 742.493 452.853C332.664 452.853 1 416.008 1 370.748V287.75Z" fill="#EEC737"/>
<path d="M742.493 369.601C1151.94 369.601 1483.86 332.898 1483.86 287.623C1483.86 242.348 1151.94 205.645 742.493 205.645C333.048 205.645 1.12695 242.348 1.12695 287.623C1.12695 332.898 333.048 369.601 742.493 369.601Z" fill="#FDD736"/>
<path d="M114.871 149.676C115.891 111.429 396.804 80.3203 742.494 80.3203C1088.18 80.3203 1369.1 111.301 1369.99 149.676C1370.63 170.585 1384.27 256.26 1384.27 277.169C1384.27 316.436 1096.86 348.182 742.494 348.182C388.133 348.182 100.717 316.819 100.717 277.424C100.717 256.26 114.361 170.585 114.871 149.676Z" fill="#EEC737"/>
<path d="M114.87 149.676C113.85 187.924 395.401 219.542 742.493 219.542C1089.59 219.542 1371.01 188.179 1369.99 149.676C1368.97 111.174 1088.06 80.3203 742.493 80.3203C396.931 80.3203 115.89 111.301 114.87 149.676Z" fill="#FDD736"/>
<path d="M222.237 46.6622C228.741 21.1637 461.581 0 742.494 0C1023.41 0 1256.12 20.6537 1262.62 46.6622C1266.19 61.0688 1313.63 126.982 1313.63 142.282C1313.63 170.585 1057.84 193.279 742.494 193.279C427.152 193.279 171.359 170.457 171.359 142.282C171.359 126.982 218.667 61.0688 222.237 46.6622Z" fill="#EEC737"/>
<path d="M222.236 46.6622C215.605 73.4356 448.446 95.4918 742.493 95.4918C1036.54 95.4918 1269.25 73.4356 1262.62 46.6622C1255.99 19.8888 1023.28 0 742.493 0C461.707 0 228.739 20.6537 222.236 46.6622Z" fill="#FDD736"/>
<path d="M359.058 56.4791C405.115 56.4791 442.452 50.8281 442.452 43.8573C442.452 36.8865 405.115 31.2356 359.058 31.2356C313.001 31.2356 275.664 36.8865 275.664 43.8573C275.664 50.8281 313.001 56.4791 359.058 56.4791Z" fill="white"/>
<path d="M1483.86 340.532C1186.62 422.892 203.492 430.924 1 340.532" stroke="#FDD736" stroke-width="0.57" stroke-linecap="round" stroke-linejoin="round"/>
<path d="M595.322 1230.25C571.034 1242.39 582.077 1302.44 645.873 1278.82C759.45 1314.58 873.028 1215.68 862.873 1108.29C861.433 1093.06 857.685 1079.37 854.044 1072.08C857.244 1067.67 859.51 1062.92 859.51 1062.92C875.014 1028.04 834.869 986.723 794.441 1023.19C686.051 991.399 568.721 1099.35 595.322 1230.25Z" fill="#FDD736"/>
<path d="M930.975 1141.18C936.935 1122.42 926.891 1072.08 859.51 1062.92C859.51 1062.92 857.244 1067.67 854.044 1072.08C857.685 1079.37 861.433 1093.06 862.873 1108.29C874.028 1110.83 888.149 1148.46 930.975 1141.18Z" fill="#73E4CF"/>
<ellipse cx="792.342" cy="1121.2" rx="4.96692" ry="4.63579" fill="black"/>
<ellipse cx="834.175" cy="1126.83" rx="5.9603" ry="6.07068" fill="black"/>
<ellipse cx="787.707" cy="1180.36" rx="5.18767" ry="5.29804" fill="black"/>
<ellipse cx="773.689" cy="1226.39" rx="5.9603" ry="5.18767" fill="black"/>
<circle cx="798.634" cy="1209.28" r="4.63579" fill="black"/>
<ellipse cx="711.878" cy="1243.06" rx="5.07729" ry="4.63579" fill="black"/>
<circle cx="761.548" cy="1169.99" r="3.75278" fill="#FFFCF5"/>
<ellipse cx="756.802" cy="1150.45" rx="1.65564" ry="1.87639" fill="#FFFCF5"/>
<ellipse cx="816.737" cy="1200.01" rx="1.76601" ry="1.54526" fill="black"/>
<ellipse cx="669.716" cy="1232.68" rx="3.09053" ry="2.64902" fill="#FFFCF5"/>
<ellipse cx="740.246" cy="1248.57" rx="3.42165" ry="3.53203" fill="#FFFCF5"/>
<ellipse cx="744.991" cy="1207.52" rx="3.97353" ry="3.53203" fill="black"/>
<ellipse cx="814.97" cy="1165.35" rx="4.19428" ry="4.41504" fill="#FFFCF5"/>
<ellipse cx="821.372" cy="1102.77" rx="5.73955" ry="5.84992" fill="#FFFCF5"/>
<ellipse cx="822.365" cy="1142.17" rx="2.98015" ry="2.86977" fill="#FFFCF5"/>
<ellipse cx="803.16" cy="1153.87" rx="3.42165" ry="3.53203" fill="#FFFCF5"/>
</svg>
