<svg width="439" height="465" viewBox="0 0 439 465" fill="none" xmlns="http://www.w3.org/2000/svg">
<path d="M0 184.5C0 184.5 47.5 187 75 121.5C102.5 56 178.5 27.5 231.5 27.5C253.117 27.5 282.968 15.8518 312 0H0V184.5Z" fill="#FFAE47"/>
<path d="M75 121.5C47.5 187 0 184.5 0 184.5V372C132.5 481 240.5 420.5 260.5 379C261.552 376.817 262.431 374.48 263.172 372C276.52 327.331 245.102 236.081 373 156.5C373 156.5 421 123.5 439 87V0H312C282.968 15.8518 253.117 27.5 231.5 27.5C178.5 27.5 102.5 56 75 121.5Z" fill="#4A5059"/>
<path d="M439 87C421 123.5 373 156.5 373 156.5C245.102 236.081 276.52 327.331 263.172 372C378.5 472 439 464 439 464V87Z" fill="#58BEE7"/>
</svg>
