<svg width="1490" height="2110" viewBox="0 0 1490 2110" fill="none" xmlns="http://www.w3.org/2000/svg">
<g clip-path="url(#clip0_4_30)">
<path d="M762.278 2110.13C1050.59 2110.13 1284.32 2084.56 1284.32 2053.01C1284.32 2021.47 1050.59 1995.89 762.278 1995.89C473.962 1995.89 240.236 2021.47 240.236 2053.01C240.236 2084.56 473.962 2110.13 762.278 2110.13Z" fill="#ABA38C"/>
<path d="M1375.11 334.54C1282.54 907.916 1189.71 1477.98 1096.62 2044.72C860.751 2065.51 623.511 2065.51 387.643 2044.72C294.132 1477.89 201.302 907.831 109.152 334.54C528.524 400.964 955.739 400.964 1375.11 334.54V334.54Z" fill="white"/>
<path d="M187.318 849.482C211.716 999.753 236.029 1149.81 260.256 1299.66C580.145 1341.48 904.118 1341.48 1224.01 1299.66C1248.4 1149.9 1272.72 999.838 1296.94 849.482C929.149 904.942 555.114 904.942 187.318 849.482V849.482Z" fill="#D89191"/>
<path d="M3.69727 287.75C3.69727 242.363 335.233 205.645 745.063 205.645C1154.89 205.645 1486.43 242.363 1486.43 287.75V370.748C1486.43 416.008 1154.89 452.853 745.063 452.853C335.233 452.853 3.69727 416.008 3.69727 370.748V287.75Z" fill="#D89191"/>
<path d="M745.063 369.601C1154.51 369.601 1486.43 332.898 1486.43 287.623C1486.43 242.348 1154.51 205.645 745.063 205.645C335.618 205.645 3.69727 242.348 3.69727 287.623C3.69727 332.898 335.618 369.601 745.063 369.601Z" fill="#D0A9A9"/>
<path d="M117.441 149.676C118.461 111.429 399.374 80.3203 745.065 80.3203C1090.75 80.3203 1371.67 111.301 1372.69 149.676C1372.69 170.585 1386.84 256.26 1386.84 277.169C1386.84 316.436 1099.55 348.182 745.065 348.182C390.576 348.182 103.287 316.436 103.287 277.169C103.287 256.26 116.931 170.585 117.441 149.676Z" fill="#D89191"/>
<path d="M117.44 149.676C116.547 187.924 397.97 219.542 745.063 219.542C1092.16 219.542 1373.58 188.179 1372.69 149.676C1371.79 111.174 1090.75 80.3203 745.063 80.3203C399.373 80.3203 118.46 111.301 117.44 149.676Z" fill="#D0A9A9"/>
<path d="M224.935 46.6622C231.438 21.1637 464.151 0 745.064 0C1025.98 0 1258.69 20.6537 1265.19 46.6622C1268.76 61.0688 1316.2 126.982 1316.2 142.282C1316.2 170.585 1060.53 193.278 745.064 193.278C429.595 193.278 173.93 170.457 173.93 142.282C173.93 126.982 221.365 61.0688 224.935 46.6622Z" fill="#D89191"/>
<path d="M224.935 46.6622C218.304 73.4356 451.017 95.4918 745.064 95.4918C1039.11 95.4918 1271.95 73.4356 1265.19 46.6622C1258.44 19.8888 1025.59 0 745.064 0C464.534 0 231.438 20.6537 224.935 46.6622Z" fill="#D0A9A9"/>
<path d="M361.628 56.4791C407.686 56.4791 445.023 50.8281 445.023 43.8573C445.023 36.8865 407.686 31.2356 361.628 31.2356C315.571 31.2356 278.234 36.8865 278.234 43.8573C278.234 50.8281 315.571 56.4791 361.628 56.4791Z" fill="white"/>
<path d="M1486.43 340.532C1189.19 422.892 206.189 430.924 3.69727 340.532" stroke="white" stroke-width="0.57" stroke-linecap="round" stroke-linejoin="round"/>
<path d="M742.13 1457.75C924.317 1457.75 1072.01 1310.08 1072.01 1127.93C1072.01 945.769 924.317 798.103 742.13 798.103C559.944 798.103 412.252 945.769 412.252 1127.93C412.252 1310.08 559.944 1457.75 742.13 1457.75Z" fill="#D0A9A9"/>
<path d="M707.956 943.189C625.455 981.437 604.415 1014.2 598.039 1045.18C589.496 1087.77 550.987 1115.3 512.223 1130.35C512.223 1131.11 513.243 1131.75 513.88 1132.39C546.651 1165.03 615.891 1148.58 669.065 1095.54C722.238 1042.51 737.795 976.72 707.956 943.189Z" fill="#5B3B28"/>
<path d="M585.034 1032.69C591.282 1001.07 612.322 968.942 694.951 930.695C694.186 929.93 693.676 929.037 692.911 928.272C660.267 895.634 590.899 912.208 537.726 965.245C484.553 1018.28 468.996 1084.96 499.472 1118.24C537.981 1102.81 576.49 1075.14 585.034 1032.69Z" fill="#5B3B28"/>
<path d="M837.257 1373.35C799.002 1290.73 766.359 1269.7 735.245 1263.45C692.783 1254.91 665.24 1216.41 650.066 1177.52C650.066 1178.16 648.663 1178.67 648.153 1179.31C615.382 1211.94 631.959 1281.3 685.005 1334.46C738.051 1387.63 803.848 1403.05 837.257 1373.35Z" fill="#5B3B28"/>
<path d="M747.869 1250.32C779.492 1256.69 811.626 1277.73 849.88 1360.22L852.175 1358.3C884.946 1325.54 868.369 1256.31 815.323 1203.15C762.278 1149.98 695.588 1134.3 662.307 1164.9C677.736 1203.27 705.279 1241.78 747.869 1250.32Z" fill="#5B3B28"/>
<path d="M819.914 930.95C823.739 1021.98 845.417 1053.85 872.322 1071.83C908.281 1095.93 918.993 1142.08 918.1 1183.77L920.523 1182.87C963.24 1165.28 974.716 1094.78 946.026 1025.55C917.335 956.321 862.249 916.033 819.914 930.95Z" fill="#5B3B28"/>
<path d="M855.237 1078.84C828.459 1060.86 806.654 1028.99 802.828 937.962L799.896 938.982C757.178 956.576 745.702 1027.08 774.393 1096.31C803.083 1165.54 858.679 1205.82 901.141 1190.78C901.907 1149.22 891.323 1103.06 855.237 1078.84Z" fill="#5B3B28"/>
</g>
<defs>
<clipPath id="clip0_4_30">
<rect width="1490" height="2110" fill="white"/>
</clipPath>
</defs>
</svg>
