<svg width="1490" height="2110" viewBox="0 0 1490 2110" fill="none" xmlns="http://www.w3.org/2000/svg">
<g clip-path="url(#clip0_4_13)">
<path d="M762.278 2110.13C1050.59 2110.13 1284.32 2084.56 1284.32 2053.01C1284.32 2021.47 1050.59 1995.89 762.278 1995.89C473.962 1995.89 240.236 2021.47 240.236 2053.01C240.236 2084.56 473.962 2110.13 762.278 2110.13Z" fill="#ABA38C"/>
<path d="M1375.11 334.54C1282.54 907.916 1189.71 1477.98 1096.62 2044.72C860.751 2065.51 623.512 2065.51 387.643 2044.72C294.558 1477.89 201.727 907.831 109.152 334.54C528.524 400.964 955.739 400.964 1375.11 334.54V334.54Z" fill="white"/>
<path d="M295.96 1519.58C250.82 1242.58 205.765 964.905 160.795 686.547C545.83 747.461 938.05 747.461 1323.08 686.547C1278.11 965.16 1233.06 1242.97 1187.92 1519.96C891.662 1555.64 592.186 1555.51 295.96 1519.58V1519.58Z" fill="#603813"/>
<path d="M742.131 1426C898.824 1426 1025.85 1299 1025.85 1142.33C1025.85 985.665 898.824 858.662 742.131 858.662C585.437 858.662 458.412 985.665 458.412 1142.33C458.412 1299 585.437 1426 742.131 1426Z" fill="white"/>
<path d="M271.987 1457.24C224.637 1223.08 177.202 988.194 129.682 752.588C536.356 804.095 947.906 804.095 1354.58 752.588C1307.15 988.194 1259.67 1223.08 1212.15 1457.24C899.495 1487.58 584.639 1487.58 271.987 1457.24V1457.24Z" stroke="white" stroke-width="0.57" stroke-linecap="round" stroke-linejoin="round"/>
<path d="M3.57031 287.75C3.57031 242.363 335.106 205.645 745.064 205.645C1155.02 205.645 1486.43 242.363 1486.43 287.75V370.748C1486.43 416.008 1154.89 452.853 745.064 452.853C335.234 452.853 3.57031 416.008 3.57031 370.748V287.75Z" fill="#CCCCCC"/>
<path d="M745.063 369.601C1154.51 369.601 1486.43 332.898 1486.43 287.623C1486.43 242.348 1154.51 205.645 745.063 205.645C335.618 205.645 3.69727 242.348 3.69727 287.623C3.69727 332.898 335.618 369.601 745.063 369.601Z" fill="#E6E6E6"/>
<path d="M117.441 149.676C118.461 111.429 399.374 80.3203 745.065 80.3203C1090.75 80.3203 1371.67 111.301 1372.56 149.676C1373.2 170.585 1386.84 256.26 1386.84 277.169C1386.84 316.436 1099.43 348.182 745.065 348.182C390.703 348.182 103.287 316.819 103.287 277.424C103.287 256.26 116.931 170.585 117.441 149.676Z" fill="#CCCCCC"/>
<path d="M117.44 149.676C116.42 187.924 397.971 219.542 745.064 219.542C1092.16 219.542 1373.58 188.179 1372.56 149.676C1371.54 111.174 1090.63 80.3203 745.064 80.3203C399.501 80.3203 118.46 111.301 117.44 149.676Z" fill="#E6E6E6"/>
<path d="M224.808 46.6622C231.311 21.1637 464.151 0 745.064 0C1025.98 0 1258.69 20.6537 1265.19 46.6622C1268.76 61.0688 1316.2 126.982 1316.2 142.282C1316.2 170.585 1060.41 193.278 745.064 193.278C429.723 193.278 173.93 170.457 173.93 142.282C173.93 126.982 221.237 61.0688 224.808 46.6622Z" fill="#CCCCCC"/>
<path d="M224.806 46.6622C218.175 73.4356 451.016 95.4918 745.063 95.4918C1039.11 95.4918 1271.82 73.4356 1265.19 46.6622C1258.56 19.8888 1025.85 0 745.063 0C464.277 0 231.309 20.6537 224.806 46.6622Z" fill="#E6E6E6"/>
<path d="M361.628 56.4791C407.686 56.4791 445.023 50.8281 445.023 43.8573C445.023 36.8865 407.686 31.2356 361.628 31.2356C315.571 31.2356 278.234 36.8865 278.234 43.8573C278.234 50.8281 315.571 56.4791 361.628 56.4791Z" fill="#666666"/>
<path d="M1486.43 340.532C1189.19 422.892 206.062 430.924 3.57031 340.532" stroke="#4D4D4D" stroke-width="0.57" stroke-linecap="round" stroke-linejoin="round"/>
<path d="M909.938 1003.37C777.451 1065.2 744.17 1117.22 733.459 1167.83C719.815 1236.17 657.971 1280.28 595.744 1304.63C596.637 1305.65 597.402 1306.8 598.422 1307.82C650.83 1360.22 762.405 1333.32 847.584 1248.66C930.723 1165.41 957.756 1057.17 909.938 1003.37Z" fill="#432719"/>
<path d="M712.547 1146.92C722.621 1095.92 756.412 1044.29 888.899 982.329C887.879 981.182 886.859 979.779 885.711 978.632C833.303 926.233 721.728 953.133 636.676 1037.79C551.625 1122.44 526.249 1230.05 574.705 1283.59C637.059 1259.37 698.903 1215.13 712.547 1146.92Z" fill="#432719"/>
</g>
<defs>
<clipPath id="clip0_4_13">
<rect width="1490" height="2110" fill="white"/>
</clipPath>
</defs>
</svg>
