<svg width="1490" height="2110" viewBox="0 0 1490 2110" fill="none" xmlns="http://www.w3.org/2000/svg">
<g clip-path="url(#clip0_4_79)">
<path d="M762.278 2110.13C1050.59 2110.13 1284.32 2084.56 1284.32 2053.01C1284.32 2021.47 1050.59 1995.89 762.278 1995.89C473.962 1995.89 240.236 2021.47 240.236 2053.01C240.236 2084.56 473.962 2110.13 762.278 2110.13Z" fill="#ABA38C"/>
<path d="M1375.11 334.54C1282.54 907.916 1189.71 1477.98 1096.62 2044.72C860.751 2065.51 623.511 2065.51 387.643 2044.72C294.132 1477.89 201.302 907.831 109.152 334.54C528.524 400.964 955.739 400.964 1375.11 334.54V334.54Z" fill="white"/>
<path d="M143.197 544.648C212.565 973.787 282.102 1401.06 351.81 1826.46C611 1859.09 873.26 1859.09 1132.45 1826.46C1202.07 1400.97 1271.61 973.702 1341.06 544.648C945.445 621.207 538.815 621.207 143.197 544.648V544.648Z" fill="#6D8E99"/>
<path d="M3.69727 287.75C3.69727 242.363 335.233 205.645 745.063 205.645C1154.89 205.645 1486.43 242.363 1486.43 287.75V370.748C1486.43 416.008 1154.89 452.853 745.063 452.853C335.233 452.853 3.69727 416.008 3.69727 370.748V287.75Z" fill="#CCCCCC"/>
<path d="M745.063 369.601C1154.51 369.601 1486.43 332.898 1486.43 287.623C1486.43 242.348 1154.51 205.645 745.063 205.645C335.618 205.645 3.69727 242.348 3.69727 287.623C3.69727 332.898 335.618 369.601 745.063 369.601Z" fill="#E6E6E6"/>
<path d="M117.441 149.676C118.461 111.429 399.374 80.3204 745.065 80.3204C1090.75 80.3204 1371.67 111.301 1372.69 149.676C1372.69 170.585 1386.84 256.26 1386.84 277.169C1386.84 316.309 1099.55 348.182 745.065 348.182C390.576 348.182 103.287 316.309 103.287 277.169C103.287 256.26 116.931 170.585 117.441 149.676Z" fill="#CCCCCC"/>
<path d="M117.44 149.676C116.547 187.924 397.97 219.542 745.063 219.542C1092.16 219.542 1373.58 188.307 1372.69 149.676C1371.79 111.046 1090.75 80.3204 745.063 80.3204C399.373 80.3204 118.46 111.301 117.44 149.676Z" fill="#E6E6E6"/>
<path d="M224.935 46.6622C231.438 21.1637 464.151 -7.62939e-05 745.064 -7.62939e-05C1025.98 -7.62939e-05 1258.69 20.6537 1265.19 46.6622C1268.76 61.0689 1316.2 126.982 1316.2 142.282C1316.2 170.585 1060.53 193.279 745.064 193.279C429.595 193.279 173.93 170.457 173.93 142.282C173.93 126.982 221.365 61.0689 224.935 46.6622Z" fill="#CCCCCC"/>
<path d="M224.935 46.6622C218.304 73.4356 451.017 95.492 745.064 95.492C1039.11 95.492 1271.95 73.4356 1265.19 46.6622C1258.44 19.8888 1025.59 -7.62939e-05 745.064 -7.62939e-05C464.534 -7.62939e-05 231.438 20.6537 224.935 46.6622Z" fill="#E6E6E6"/>
<path d="M361.628 56.4792C407.686 56.4792 445.023 50.8282 445.023 43.8574C445.023 36.8866 407.686 31.2357 361.628 31.2357C315.571 31.2357 278.234 36.8866 278.234 43.8574C278.234 50.8282 315.571 56.4792 361.628 56.4792Z" fill="white"/>
<path d="M1486.43 340.532C1189.19 422.892 206.189 430.924 3.69727 340.532" stroke="#6D8E99" stroke-width="0.57" stroke-linecap="round" stroke-linejoin="round"/>
<path d="M403.072 724.795C316.745 769.162 296.342 808.047 291.497 846.04C285.121 896.145 247.505 926.36 209.123 941.787C209.761 942.552 210.271 943.444 211.036 944.209C246.23 982.457 315.342 967.668 366.985 909.276C418.628 850.885 435.46 768.142 403.072 724.795Z" stroke="white" stroke-width="0.57" stroke-linecap="round" stroke-linejoin="round"/>
<path d="M277.088 829.083C281.806 790.835 302.591 751.568 388.663 706.946C388.057 705.848 387.33 704.821 386.495 703.886C350.154 659.773 275.813 677.622 222.767 742.133C171.761 803.967 161.05 884.542 194.842 925.085C233.223 909.913 270.967 879.57 277.088 829.083Z" stroke="white" stroke-width="0.57" stroke-linecap="round" stroke-linejoin="round"/>
<path d="M688.704 729.257C612.195 773.497 593.706 809.195 589.498 843.235C583.887 888.112 550.478 917.053 516.305 932.48C516.895 933.128 517.449 933.809 517.962 934.52C549.458 966.903 610.793 949.436 656.825 894.615C702.858 839.793 717.522 766.357 688.704 729.257Z" stroke="white" stroke-width="0.57" stroke-linecap="round" stroke-linejoin="round"/>
<path d="M576.746 829.466C580.826 795.17 598.933 759.217 675.824 714.722L673.911 712.045C641.395 674.945 575.343 695.089 528.291 755.775C483.406 813.656 473.46 885.817 503.553 919.858C537.727 903.284 571.263 874.598 576.746 829.466Z" stroke="white" stroke-width="0.57" stroke-linecap="round" stroke-linejoin="round"/>
<path d="M1018.2 728.237C921.416 768.907 893.49 807.282 881.886 845.53C866.457 895.889 822.337 924.703 779.875 938.472C780.338 939.349 780.849 940.2 781.405 941.022C810.989 981.947 884.819 969.835 948.321 913.101C1011.82 856.367 1043.83 774.134 1018.2 728.237Z" stroke="white" stroke-width="0.57" stroke-linecap="round" stroke-linejoin="round"/>
<path d="M869.9 828.191C881.504 789.943 909.43 750.93 1006.47 709.878C1005.83 708.858 1005.45 707.711 1004.68 706.691C974.972 660.283 895.276 674.69 829.096 738.054C766.104 798.23 740.474 879.188 768.144 921.898C810.479 908.001 854.599 878.933 869.9 828.191Z" stroke="white" stroke-width="0.57" stroke-linecap="round" stroke-linejoin="round"/>
<path d="M1300 707.201C1210.74 764.955 1188.94 807.41 1182.44 846.805C1173.77 898.694 1134.62 934.902 1095.22 956.193C1095.79 956.973 1096.43 957.699 1097.13 958.361C1130.92 992.656 1201.18 967.03 1255.76 899.969C1310.33 832.908 1330.86 746.978 1300 707.201Z" stroke="white" stroke-width="0.57" stroke-linecap="round" stroke-linejoin="round"/>
<path d="M1168.67 832.143C1175.04 792.493 1197.36 749.783 1286.36 691.902C1285.6 691.009 1285.09 689.989 1284.32 689.097C1249.51 649.574 1173.89 678.642 1117.66 752.843C1063.98 823.219 1049.31 906.726 1081.57 943.062C1120.98 920.878 1160.25 884.415 1168.67 832.143Z" stroke="white" stroke-width="0.57" stroke-linecap="round" stroke-linejoin="round"/>
<path d="M420.413 1069.02C346.328 1098.6 327.201 1127.67 321.207 1156.87C313.174 1195.11 280.148 1216.92 247.377 1226.86L248.78 1228.9C276.195 1261.16 334.596 1253.12 380.884 1210.41C427.172 1167.7 445.151 1105.1 420.413 1069.02Z" stroke="white" stroke-width="0.57" stroke-linecap="round" stroke-linejoin="round"/>
<path d="M310.115 1143.61C315.98 1114.03 335.617 1084.83 409.321 1054.36C408.812 1053.53 408.258 1052.72 407.663 1051.94C379.61 1015.73 317 1025.29 269.31 1072.72C223.915 1117.98 210.271 1179.94 236.284 1212.96C269.183 1204.04 302.209 1182.49 310.115 1143.61Z" stroke="white" stroke-width="0.57" stroke-linecap="round" stroke-linejoin="round"/>
<path d="M702.985 1064.56C625.457 1097.2 604.927 1127.54 597.786 1157.76C588.478 1197.54 553.666 1220.61 519.365 1231.83C519.834 1232.54 520.345 1233.22 520.895 1233.87C548.311 1265.87 609.007 1255.67 658.1 1210.41C707.193 1165.15 727.595 1100.26 702.985 1064.56Z" stroke="white" stroke-width="0.57" stroke-linecap="round" stroke-linejoin="round"/>
<path d="M586.692 1144.24C593.705 1113.9 614.362 1083.3 692.018 1050.28C691.381 1049.52 690.998 1048.63 690.361 1047.73C662.435 1011.78 597.276 1023.76 546.653 1073.87C498.325 1121.68 482.896 1185.55 508.398 1218.96C542.7 1207.48 577.511 1183.77 586.692 1144.24Z" stroke="white" stroke-width="0.57" stroke-linecap="round" stroke-linejoin="round"/>
<path d="M991.931 1055.38C906.242 1093.63 882.78 1126.65 873.981 1159.42C862.25 1202.76 823.613 1228.64 785.869 1241.9L787.272 1244.07C816.09 1277.73 882.525 1264.85 937.611 1214.37C992.697 1163.88 1017.31 1093.25 991.931 1055.38Z" stroke="white" stroke-width="0.57" stroke-linecap="round" stroke-linejoin="round"/>
<path d="M862.378 1145.52C871.049 1112.5 894.639 1078.84 980.456 1040.85C980.456 1039.96 979.308 1038.94 978.671 1038.17C949.597 999.923 878.19 1015.1 821.191 1070.81C766.87 1123.97 747.105 1193.46 774.138 1228.64C812.01 1214.88 850.774 1188.74 862.378 1145.52Z" stroke="white" stroke-width="0.57" stroke-linecap="round" stroke-linejoin="round"/>
<path d="M1270.04 1044.42C1183.2 1090.19 1159.87 1126.27 1151.58 1160.56C1140.48 1205.7 1101.34 1235.53 1063.08 1252.23C1063.08 1252.87 1064.1 1253.63 1064.61 1254.14C1094.71 1286.27 1162.42 1266.89 1217.63 1211.31C1272.84 1155.72 1296.82 1080.88 1270.04 1044.42Z" stroke="white" stroke-width="0.57" stroke-linecap="round" stroke-linejoin="round"/>
<path d="M1139.34 1146.92C1147.62 1112.5 1171.09 1076.16 1258.05 1030.01C1257.41 1029.25 1256.9 1028.23 1256.27 1027.46C1225.66 990.998 1152.98 1012.29 1095.85 1074C1041.41 1132.9 1022.53 1205.57 1050.97 1239.74C1089.35 1222.02 1128.5 1192.44 1139.34 1146.92Z" stroke="white" stroke-width="0.57" stroke-linecap="round" stroke-linejoin="round"/>
<path d="M436.99 1340.46C367.24 1376.79 351.811 1405.99 349.515 1433.91C346.328 1470.75 316.107 1494.72 284.738 1507.98L286.396 1509.64C317.509 1536.28 374.636 1521.75 415.185 1476.36C455.735 1430.98 465.808 1370.67 436.99 1340.46Z" stroke="white" stroke-width="0.57" stroke-linecap="round" stroke-linejoin="round"/>
<path d="M337.019 1422.69C339.442 1394.51 354.743 1365.19 424.493 1328.6L422.581 1326.43C390.447 1296.47 329.623 1312.92 288.308 1362.51C248.779 1409.94 242.531 1469.22 272.369 1497.14C303.61 1483.88 333.703 1459.79 337.019 1422.69Z" stroke="white" stroke-width="0.57" stroke-linecap="round" stroke-linejoin="round"/>
<path d="M706.809 1349.51C633.234 1378.7 613.852 1405.73 607.348 1432.76C598.805 1468.33 565.651 1488.98 533.008 1499.06C533.444 1499.68 533.912 1500.27 534.41 1500.84C560.806 1529.53 618.825 1520.35 665.24 1479.8C711.655 1439.26 730.144 1381.76 706.809 1349.51Z" stroke="white" stroke-width="0.57" stroke-linecap="round" stroke-linejoin="round"/>
<path d="M596.382 1421.03C602.758 1393.87 621.885 1366.59 695.843 1337.27C695.843 1336.5 694.823 1335.61 694.186 1334.97C667.28 1302.85 604.926 1313.55 557.618 1358.18C511.968 1400.89 497.049 1458 522.042 1487.84C554.685 1477.64 587.839 1456.86 596.382 1421.03Z" stroke="white" stroke-width="0.57" stroke-linecap="round" stroke-linejoin="round"/>
<path d="M975.226 1344.54C895.785 1376.66 873.981 1405.6 865.82 1433.78C854.981 1472.03 819.022 1493.83 783.828 1505.18C784.326 1505.75 784.795 1506.34 785.231 1506.96C811.881 1536.67 874.491 1525.83 925.496 1482.23C976.502 1438.62 998.944 1377.56 975.226 1344.54Z" stroke="white" stroke-width="0.57" stroke-linecap="round" stroke-linejoin="round"/>
<path d="M854.982 1421.54C863.142 1392.85 884.947 1363.79 964.516 1331.4L962.986 1328.98C935.825 1295.83 869.773 1308.2 816.855 1356.14C765.85 1402.03 747.998 1462.47 772.99 1493.32C808.822 1481.97 844.27 1459.41 854.982 1421.54Z" stroke="white" stroke-width="0.57" stroke-linecap="round" stroke-linejoin="round"/>
<path d="M1235.48 1356.14C1158.97 1381.64 1135.13 1407.13 1124.42 1432.63C1110.26 1466.42 1074.56 1485.03 1040.77 1493.45L1041.92 1495.23C1063.34 1523.79 1121.74 1517.29 1173.89 1480.06C1226.05 1442.83 1253.72 1387.76 1235.48 1356.14Z" stroke="white" stroke-width="0.57" stroke-linecap="round" stroke-linejoin="round"/>
<path d="M1115.87 1420.27C1126.59 1394.77 1149.92 1369.27 1227.07 1343.77C1227.07 1343.01 1226.3 1342.24 1225.79 1341.48C1204.5 1309.6 1142.02 1317.51 1087.82 1358.56C1036.18 1397.7 1012.46 1452.01 1032.23 1481.59C1065.89 1473.05 1102.1 1454.31 1115.87 1420.27Z" stroke="white" stroke-width="0.57" stroke-linecap="round" stroke-linejoin="round"/>
<path d="M447.702 1601.43C388.535 1629.74 375.274 1652.43 372.851 1674.87C369.791 1704.19 344.033 1722.93 317.383 1733.26L318.785 1734.53C344.288 1756.08 392.998 1744.73 427.81 1709.04C462.621 1673.34 471.674 1625.53 447.702 1601.43Z" stroke="white" stroke-width="0.57" stroke-linecap="round" stroke-linejoin="round"/>
<path d="M362.522 1665.82C364.817 1643.63 378.079 1620.43 437.245 1592L435.587 1590.34C408.937 1566.37 357.676 1578.99 322.227 1618.01C286.779 1657.02 282.316 1702.15 307.053 1724.59C333.576 1714.26 359.334 1695.27 362.522 1665.82Z" stroke="white" stroke-width="0.57" stroke-linecap="round" stroke-linejoin="round"/>
<path d="M699.288 1594.8C635.531 1627.06 620.101 1652.17 616.786 1675.89C612.451 1707.38 584.142 1728.42 555.324 1740.4L556.727 1741.67C583.76 1763.86 635.786 1750.22 674.295 1710.82C712.804 1671.43 724.153 1619.79 699.288 1594.8Z" stroke="white" stroke-width="0.57" stroke-linecap="round" stroke-linejoin="round"/>
<path d="M605.819 1666.58C609.135 1642.74 624.054 1617.37 688.321 1584.99C687.836 1584.33 687.28 1583.73 686.663 1583.2C658.993 1558.34 603.652 1573.51 564.377 1616.48C525.103 1659.44 518.727 1708.14 544.485 1731.22C573.303 1719.24 601.611 1698.33 605.819 1666.58Z" stroke="white" stroke-width="0.57" stroke-linecap="round" stroke-linejoin="round"/>
<path d="M950.488 1593.27C882.523 1626.04 865.309 1651.92 860.209 1676.27C853.578 1708.65 823.23 1730.2 792.754 1742.31C793.253 1742.75 793.721 1743.22 794.157 1743.71C819.659 1766.66 874.618 1753.02 916.825 1712.48C959.032 1671.94 974.588 1619.15 950.488 1593.27Z" stroke="white" stroke-width="0.57" stroke-linecap="round" stroke-linejoin="round"/>
<path d="M849.753 1666.71C854.727 1642.1 871.814 1615.71 940.034 1583.07C939.516 1582.45 938.962 1581.85 938.376 1581.29C911.725 1555.79 853.962 1570.83 810.862 1614.82C767.762 1658.8 757.689 1708.91 782.299 1733C812.647 1720.77 843.123 1699.22 849.753 1666.71Z" stroke="white" stroke-width="0.57" stroke-linecap="round" stroke-linejoin="round"/>
<path d="M1210.36 1617.24C1136.4 1632.67 1112.69 1653.07 1100.96 1674.87C1085.4 1703.81 1049.95 1717.07 1018.07 1721.66C1018.32 1722.24 1018.62 1722.79 1018.96 1723.32C1037.2 1750.73 1092.67 1750.09 1144.31 1721.53C1195.95 1692.97 1225.41 1646.18 1210.36 1617.24Z" stroke="white" stroke-width="0.57" stroke-linecap="round" stroke-linejoin="round"/>
<path d="M1093.69 1662.76C1105.42 1640.83 1129.14 1620.3 1203.22 1604.62C1203.22 1603.98 1202.58 1603.22 1202.2 1602.58C1184.22 1572.49 1125.06 1573.89 1071.5 1605.38C1020.49 1635.6 994.098 1681.88 1010.67 1709.93C1043.06 1705.34 1078.13 1691.95 1093.69 1662.76Z" stroke="white" stroke-width="0.57" stroke-linecap="round" stroke-linejoin="round"/>
</g>
<defs>
<clipPath id="clip0_4_79">
<rect width="1490" height="2110" fill="white"/>
</clipPath>
</defs>
</svg>
