<svg width="1490" height="2110" viewBox="0 0 1490 2110" fill="none" xmlns="http://www.w3.org/2000/svg">
<g clip-path="url(#clip0_4_124)">
<path d="M762.278 2110.13C1050.59 2110.13 1284.32 2084.56 1284.32 2053.01C1284.32 2021.47 1050.59 1995.89 762.278 1995.89C473.962 1995.89 240.236 2021.47 240.236 2053.01C240.236 2084.56 473.962 2110.13 762.278 2110.13Z" fill="#ABA38C"/>
<path d="M1374.98 334.54C1282.58 907.916 1189.75 1477.98 1096.49 2044.72C860.622 2065.51 623.383 2065.51 387.514 2044.72C294.429 1477.89 201.599 907.831 109.023 334.54C528.395 400.964 955.61 400.964 1374.98 334.54V334.54Z" fill="white"/>
<path d="M295.96 1519.58C250.82 1242.58 205.765 964.778 160.795 686.164C545.913 747.106 938.221 747.106 1323.34 686.164C1278.37 964.693 1233.31 1242.5 1188.17 1519.58C891.849 1555.41 592.285 1555.41 295.96 1519.58V1519.58Z" fill="#628A88"/>
<path d="M271.988 1457.24C224.382 1222.99 176.905 988.109 129.555 752.588C536.229 804.095 947.779 804.095 1354.45 752.588C1307.19 988.194 1259.88 1223.08 1212.53 1457.24C899.752 1487.61 584.766 1487.61 271.988 1457.24V1457.24Z" stroke="white" stroke-width="0.57" stroke-linecap="round" stroke-linejoin="round"/>
<path d="M3.57031 287.75C3.57031 242.363 335.106 205.645 744.936 205.645C1154.77 205.645 1486.43 242.363 1486.43 287.75V370.748C1486.43 416.008 1154.89 452.853 744.936 452.853C334.979 452.853 3.57031 416.008 3.57031 370.748V287.75Z" fill="#628A88"/>
<path d="M745.063 369.601C1154.51 369.601 1486.43 332.898 1486.43 287.623C1486.43 242.348 1154.51 205.645 745.063 205.645C335.618 205.645 3.69727 242.348 3.69727 287.623C3.69727 332.898 335.618 369.601 745.063 369.601Z" fill="#8FB6B5"/>
<path d="M117.44 149.676C118.332 111.429 399.373 80.3204 744.936 80.3204C1090.5 80.3204 1371.54 111.301 1372.56 149.676C1372.56 170.585 1386.71 256.26 1386.71 277.169C1386.71 316.309 1099.42 348.182 744.936 348.182C390.447 348.182 103.158 316.819 103.158 277.551C103.158 256.26 116.802 170.585 117.44 149.676Z" fill="#628A88"/>
<path d="M117.44 149.676C116.42 187.924 397.333 219.542 744.936 219.542C1092.54 219.542 1373.58 188.307 1372.56 149.676C1371.54 111.046 1090.63 80.3204 744.936 80.3204C399.246 80.3204 118.333 111.301 117.44 149.676Z" fill="#8FB6B5"/>
<path d="M224.806 46.6622C231.31 21.1637 464.15 -7.62939e-05 744.935 -7.62939e-05C1025.72 -7.62939e-05 1258.69 20.6537 1265.19 46.6622C1268.76 61.0689 1316.2 126.982 1316.2 142.282C1316.2 170.585 1060.53 193.279 745.063 193.279C429.593 193.279 173.928 170.457 173.928 142.282C173.8 126.982 221.236 61.0689 224.806 46.6622Z" fill="#628A88"/>
<path d="M224.808 46.6622C218.177 73.4356 451.018 95.492 744.937 95.492C1038.86 95.492 1271.82 73.4356 1265.19 46.6622C1258.56 19.8888 1025.85 -7.62939e-05 744.937 -7.62939e-05C464.024 -7.62939e-05 231.311 20.6537 224.808 46.6622Z" fill="#8FB6B5"/>
<path d="M361.628 56.4792C407.686 56.4792 445.023 50.8282 445.023 43.8574C445.023 36.8866 407.686 31.2357 361.628 31.2357C315.571 31.2357 278.234 36.8866 278.234 43.8574C278.234 50.8282 315.571 56.4792 361.628 56.4792Z" fill="white"/>
<path d="M1486.43 340.532C1189.07 422.892 206.062 430.924 3.57031 340.532" stroke="white" stroke-width="0.57" stroke-linecap="round" stroke-linejoin="round"/>
<path d="M742.131 1317.38C887.063 1317.38 1004.55 1288.84 1004.55 1253.63C1004.55 1218.43 887.063 1189.89 742.131 1189.89C597.198 1189.89 479.707 1218.43 479.707 1253.63C479.707 1288.84 597.198 1317.38 742.131 1317.38Z" fill="white"/>
<path d="M742.003 1282.06C623.542 1282.06 549.967 1222.27 549.967 1126.14V1009.36C549.967 989.408 557.893 970.275 572.002 956.169C586.111 942.062 605.247 934.137 625.2 934.137H858.933C878.886 934.137 898.022 942.062 912.131 956.169C926.24 970.275 934.166 989.408 934.166 1009.36V1126.14C934.166 1222.02 860.463 1282.06 742.003 1282.06Z" fill="white"/>
<path d="M858.934 947.652C875.28 947.685 890.946 954.201 902.492 965.77C914.039 977.338 920.523 993.014 920.523 1009.36V1126.14C920.523 1224.69 840.7 1268.55 742.004 1268.55C643.308 1268.55 563.484 1224.69 563.484 1126.14V1009.36C563.484 992.992 569.987 977.297 581.561 965.725C593.135 954.153 608.833 947.652 625.201 947.652H858.934M858.934 920.623H625.201C601.528 920.623 578.825 930.025 562.085 946.762C545.346 963.499 535.941 986.198 535.941 1009.87V1126.65C535.941 1231.19 614.745 1296.09 741.494 1296.09C868.243 1296.09 947.174 1231.19 947.174 1126.65V1009.87C947.174 986.198 937.77 963.499 921.03 946.762C904.291 930.025 881.587 920.623 857.914 920.623H858.934Z" fill="#8FB6B5"/>
<path d="M887.624 987.047C887.624 1001.71 822.464 1013.56 742.003 1013.56C661.542 1013.56 596.51 1001.71 596.51 987.047C596.51 972.385 661.669 960.401 742.003 960.401C822.337 960.401 887.624 972.257 887.624 987.047Z" fill="#8FB6B5"/>
<path d="M932 1047.61C967.193 1047.61 995.756 1073.1 995.756 1103.83C995.756 1120.74 989.039 1136.95 977.082 1148.9C965.126 1160.86 948.909 1167.58 932 1167.58C915.09 1167.58 898.873 1160.86 886.917 1148.9C874.96 1136.95 868.243 1120.74 868.243 1103.83C868.243 1072.72 896.806 1047.61 932 1047.61ZM932 1020.45C881.887 1020.45 841.082 1057.8 841.082 1103.83C841.082 1149.85 881.887 1187.21 932 1187.21C982.112 1187.21 1022.92 1149.85 1022.92 1103.83C1022.92 1057.8 982.112 1020.45 932 1020.45Z" fill="white"/>
</g>
<defs>
<clipPath id="clip0_4_124">
<rect width="1490" height="2110" fill="white"/>
</clipPath>
</defs>
</svg>
