<svg width="1490" height="2110" viewBox="0 0 1490 2110" fill="none" xmlns="http://www.w3.org/2000/svg">
<g clip-path="url(#clip0_4_51)">
<path d="M762.278 2110.13C1050.59 2110.13 1284.32 2084.56 1284.32 2053.01C1284.32 2021.47 1050.59 1995.89 762.278 1995.89C473.962 1995.89 240.236 2021.47 240.236 2053.01C240.236 2084.56 473.962 2110.13 762.278 2110.13Z" fill="#ABA38C"/>
<path d="M1375.11 334.54C1282.54 907.916 1189.71 1477.98 1096.62 2044.72C860.751 2065.51 623.512 2065.51 387.643 2044.72C294.558 1477.89 201.727 907.831 109.152 334.54C528.524 400.964 955.739 400.964 1375.11 334.54V334.54Z" fill="white"/>
<path d="M3.57031 287.75C3.57031 242.363 335.106 205.645 745.064 205.645C1155.02 205.645 1486.43 242.363 1486.43 287.75V370.748C1486.43 416.008 1154.89 452.853 745.064 452.853C335.234 452.853 3.57031 416.008 3.57031 370.748V287.75Z" fill="#303032"/>
<path d="M745.063 369.601C1154.51 369.601 1486.43 332.898 1486.43 287.623C1486.43 242.348 1154.51 205.645 745.063 205.645C335.618 205.645 3.69727 242.348 3.69727 287.623C3.69727 332.898 335.618 369.601 745.063 369.601Z" fill="#474749"/>
<path d="M117.441 149.676C118.461 111.429 399.374 80.3204 745.065 80.3204C1090.75 80.3204 1371.67 111.301 1372.56 149.676C1373.2 170.585 1386.84 256.26 1386.84 277.169C1386.84 316.309 1099.43 348.182 745.065 348.182C390.703 348.182 103.287 316.309 103.287 277.169C103.287 256.26 116.931 170.585 117.441 149.676Z" fill="#303032"/>
<path d="M117.44 149.676C116.42 187.924 397.971 219.542 745.064 219.542C1092.16 219.542 1373.58 188.307 1372.56 149.676C1371.54 111.046 1090.63 80.3204 745.064 80.3204C399.501 80.3204 118.46 111.301 117.44 149.676Z" fill="#474749"/>
<path d="M224.808 46.6622C231.311 21.1637 464.151 -7.62939e-05 745.064 -7.62939e-05C1025.98 -7.62939e-05 1258.69 20.6537 1265.19 46.6622C1268.76 61.0689 1316.2 126.982 1316.2 142.282C1316.2 170.585 1060.41 193.279 745.064 193.279C429.723 193.279 173.93 170.457 173.93 142.282C173.93 126.982 221.237 61.0689 224.808 46.6622Z" fill="#303032"/>
<path d="M224.806 46.6622C218.175 73.4356 451.016 95.492 745.063 95.492C1039.11 95.492 1271.82 73.4356 1265.19 46.6622C1258.56 19.8888 1025.85 -7.62939e-05 745.063 -7.62939e-05C464.277 -7.62939e-05 231.309 20.6537 224.806 46.6622Z" fill="#474749"/>
<path d="M361.628 56.4792C407.686 56.4792 445.023 50.8282 445.023 43.8574C445.023 36.8866 407.686 31.2357 361.628 31.2357C315.571 31.2357 278.234 36.8866 278.234 43.8574C278.234 50.8282 315.571 56.4792 361.628 56.4792Z" fill="#1C1B1C"/>
<path d="M1486.43 340.532C1189.19 422.892 206.062 430.924 3.57031 340.532" stroke="#4D4D4F" stroke-width="0.57" stroke-linecap="round" stroke-linejoin="round"/>
<path d="M1292.1 878.805C1213.55 890.535 1134.79 899.714 1055.81 906.344C1023.48 851.972 977.564 806.939 922.571 775.663C867.578 744.387 805.398 727.941 742.13 727.941C678.863 727.941 616.682 744.387 561.689 775.663C506.696 806.939 460.78 851.972 428.446 906.344C349.387 899.714 270.584 890.535 192.035 878.805C210.652 994.143 229.312 1109.4 248.014 1224.57C301.74 1231.7 355.466 1237.65 409.191 1242.41C438.007 1306.6 484.765 1361.08 543.835 1399.31C602.904 1437.53 671.767 1457.87 742.13 1457.87C812.493 1457.87 881.356 1437.53 940.426 1399.31C999.496 1361.08 1046.25 1306.6 1075.07 1242.41C1128.88 1237.57 1182.56 1231.62 1236.12 1224.57C1254.91 1109.48 1273.57 994.228 1292.1 878.805Z" fill="#603813"/>
<path d="M1240.2 1158.27C1203.99 1162.6 1107.33 1175.61 1069.33 1178.92L1032.23 1182.37L1016.92 1216.28C993.148 1269.26 954.558 1314.23 905.804 1345.79C857.05 1377.35 800.21 1394.13 742.132 1394.13C684.053 1394.13 627.214 1377.35 578.459 1345.79C529.705 1314.23 491.115 1269.26 467.339 1216.28L452.038 1182.37L414.803 1178.92C376.549 1175.61 275.431 1166.17 239.217 1161.46" stroke="white" stroke-width="0.57" stroke-linecap="round" stroke-linejoin="round"/>
<path d="M200.961 941.532C251.967 947.906 371.065 965.5 422.963 969.835L462.747 973.277L483.149 938.982C509.83 894.093 547.727 856.913 593.12 831.09C638.512 805.267 689.84 791.689 742.066 791.689C794.292 791.689 845.62 805.267 891.013 831.09C936.405 856.913 974.302 894.093 1000.98 938.982L1021.39 973.277L1061.17 969.835C1113.07 965.5 1230.89 954.281 1281.64 947.906" stroke="white" stroke-width="0.57" stroke-linecap="round" stroke-linejoin="round"/>
<path d="M865.692 997.756C768.144 1043.27 743.151 1081.52 735.755 1118.87C725.682 1169.11 680.159 1201.62 633.744 1219.47L635.657 1221.89C673.911 1260.14 756.413 1241.01 819.022 1178.29C881.631 1115.56 900.886 1037.28 865.692 997.756Z" fill="#432719"/>
<path d="M720.326 1103.45C727.722 1066.09 752.714 1027.84 850.135 982.33C849.37 981.437 848.732 980.417 847.84 979.525C809.586 941.277 727.084 960.401 664.475 1023.13C601.865 1085.85 583.503 1164.64 618.952 1204.04C664.73 1186.19 710.252 1153.68 720.326 1103.45Z" fill="#432719"/>
<path d="M739.708 825.004L748.124 842.215L767.124 844.892L753.48 858.279L756.668 877.148L739.708 868.224L722.749 877.148L725.937 858.279L712.293 844.892L731.165 842.215L739.708 825.004Z" fill="white"/>
<path d="M739.708 1360.98L731.165 1343.77L712.293 1340.97L725.937 1327.71L722.749 1308.84L739.708 1317.63L756.668 1308.84L753.48 1327.71L767.124 1340.97L748.124 1343.77L739.708 1360.98Z" fill="white"/>
<path d="M605.945 863.761L621.885 874.471L639.737 867.331L634.508 885.818L646.75 900.607L627.623 901.244L617.422 917.436L610.791 899.587L592.174 894.87L607.22 882.885L605.945 863.761Z" fill="white"/>
<path d="M873.47 1322.1L857.531 1311.51L839.679 1318.53L844.907 1300.17L832.666 1285.38L851.793 1284.61L861.994 1268.42L868.625 1286.4L887.242 1291.12L872.195 1302.97L873.47 1322.1Z" fill="white"/>
<path d="M510.566 959.253L529.566 960.528L541.552 945.484L546.27 964.098L564.25 970.727L548.055 980.927L547.29 1000.05L532.499 987.811L514.009 993.039L521.15 975.19L510.566 959.253Z" fill="white"/>
<path d="M968.851 1226.6L949.724 1225.46L937.866 1240.5L933.147 1221.89L915.168 1215.26L931.362 1205.06L932.127 1185.93L946.919 1198.17L965.281 1192.95L958.268 1210.67L968.851 1226.6Z" fill="white"/>
<path d="M471.674 1092.99L488.888 1084.45L491.566 1065.58L504.955 1079.22L523.827 1076.04L514.901 1092.99L523.827 1109.95L504.955 1106.63L491.566 1120.4L488.888 1101.41L471.674 1092.99Z" fill="white"/>
<path d="M1007.74 1092.99L990.529 1101.41L987.851 1120.4L974.462 1106.63L955.59 1109.95L964.516 1092.99L955.59 1076.04L974.462 1079.22L987.851 1065.58L990.529 1084.45L1007.74 1092.99Z" fill="white"/>
<path d="M510.566 1226.6L521.15 1210.67L514.009 1192.95L532.499 1198.17L547.29 1185.93L548.055 1205.06L564.25 1215.26L546.27 1221.89L541.552 1240.5L529.566 1225.46L510.566 1226.6Z" fill="white"/>
<path d="M968.851 959.253L958.268 975.19L965.281 993.039L946.919 987.811L932.127 1000.05L931.362 980.927L915.168 970.727L933.147 964.098L937.866 945.484L949.724 960.528L968.851 959.253Z" fill="white"/>
<path d="M605.945 1322.1L607.22 1302.97L592.174 1291.12L610.791 1286.4L617.422 1268.42L627.623 1284.61L646.75 1285.38L634.508 1300.17L639.737 1318.53L621.885 1311.51L605.945 1322.1Z" fill="white"/>
<path d="M873.47 863.761L872.195 882.885L887.242 894.87L868.625 899.587L861.994 917.436L851.793 901.244L832.666 900.607L844.907 885.818L839.679 867.331L857.531 874.471L873.47 863.761Z" fill="white"/>
</g>
<defs>
<clipPath id="clip0_4_51">
<rect width="1490" height="2110" fill="white"/>
</clipPath>
</defs>
</svg>
